<svg viewBox="0 0 24 24" fill="none" xmlns="http://www.w3.org/2000/svg">
<path d="M7.76001 21C6.81812 21.0025 5.89676 20.7249 5.11302 20.2025C4.32927 19.6801 3.71852 18.9365 3.35839 18.0662C2.99826 17.1959 2.905 16.2381 3.09047 15.3147C3.27594 14.3912 3.73176 13.5438 4.40001 12.88L5.81001 11.47C5.95063 11.3295 6.14126 11.2507 6.34001 11.2507C6.53876 11.2507 6.72938 11.3295 6.87001 11.47C6.94077 11.5389 6.997 11.6214 7.0354 11.7124C7.0738 11.8034 7.09358 11.9012 7.09358 12C7.09358 12.0988 7.0738 12.1966 7.0354 12.2876C6.997 12.3786 6.94077 12.4611 6.87001 12.53L5.46001 13.94C4.8518 14.5509 4.51033 15.3779 4.51033 16.24C4.51033 17.1021 4.8518 17.9291 5.46001 18.54C6.07954 19.1317 6.9033 19.4619 7.76001 19.4619C8.61672 19.4619 9.44048 19.1317 10.06 18.54L12.88 15.71C13.1821 15.409 13.4217 15.0513 13.5853 14.6575C13.7488 14.2637 13.833 13.8414 13.833 13.415C13.833 12.9886 13.7488 12.5663 13.5853 12.1725C13.4217 11.7787 13.1821 11.421 12.88 11.12C12.7396 10.9794 12.6607 10.7887 12.6607 10.59C12.6607 10.3912 12.7396 10.2006 12.88 10.06C12.949 9.98924 13.0314 9.933 13.1224 9.89461C13.2134 9.85621 13.3112 9.83643 13.41 9.83643C13.5088 9.83643 13.6066 9.85621 13.6976 9.89461C13.7886 9.933 13.8711 9.98924 13.94 10.06C14.3823 10.4996 14.7334 11.0223 14.9729 11.5981C15.2125 12.1739 15.3358 12.7914 15.3358 13.415C15.3358 14.0386 15.2125 14.6561 14.9729 15.2319C14.7334 15.8077 14.3823 16.3304 13.94 16.77L11.12 19.6C10.6808 20.0446 10.1576 20.3973 9.58072 20.6377C9.00386 20.8781 8.38494 21.0012 7.76001 21Z" fill="currentColor"/>
<path d="M10.59 14.16C10.4912 14.1622 10.3931 14.1438 10.3018 14.1059C10.2105 14.068 10.1282 14.0115 10.06 13.94C9.61646 13.5011 9.26435 12.9786 9.02404 12.4027C8.78374 11.8268 8.66 11.209 8.66 10.585C8.66 9.96099 8.78374 9.34318 9.02404 8.7673C9.26435 8.19143 9.61646 7.66892 10.06 7.23L12.88 4.4C13.7711 3.50887 14.9798 3.00824 16.24 3.00824C17.5003 3.00824 18.7089 3.50887 19.6 4.4C20.4911 5.29112 20.9918 6.49975 20.9918 7.76C20.9918 9.02024 20.4911 10.2289 19.6 11.12L18.19 12.53C18.0494 12.6704 17.8588 12.7493 17.66 12.7493C17.4613 12.7493 17.2706 12.6704 17.13 12.53C17.0592 12.4611 17.003 12.3786 16.9646 12.2876C16.9262 12.1966 16.9064 12.0988 16.9064 12C16.9064 11.9012 16.9262 11.8034 16.9646 11.7124C17.003 11.6214 17.0592 11.5389 17.13 11.47L18.54 10.06C19.1482 9.44905 19.4897 8.62207 19.4897 7.76C19.4897 6.89792 19.1482 6.07094 18.54 5.46C17.9205 4.86827 17.0967 4.53809 16.24 4.53809C15.3833 4.53809 14.5595 4.86827 13.94 5.46L11.12 8.29C10.8155 8.58964 10.5737 8.94687 10.4087 9.34088C10.2436 9.7349 10.1586 10.1578 10.1586 10.585C10.1586 11.0122 10.2436 11.4351 10.4087 11.8291C10.5737 12.2231 10.8155 12.5804 11.12 12.88C11.2605 13.0206 11.3393 13.2112 11.3393 13.41C11.3393 13.6087 11.2605 13.7994 11.12 13.94C11.0508 14.0101 10.9682 14.0657 10.8772 14.1035C10.7862 14.1412 10.6885 14.1605 10.59 14.16Z" fill="currentColor"/>
</svg>
