<svg xmlns="http://www.w3.org/2000/svg" viewBox="0 0 24.836479 25.375219" fill="none" stroke="currentColor" stroke-width="1.0" stroke-linecap="round" stroke-linejoin="round">
  <path d="m 4.55087,0.00003 h 15.73477 c 1.25148,0 2.38919,0.51064 3.21469,1.33614 0.8255,0.8255 1.33615,1.96321 1.33615,3.21469 v 10.14942 c 0,1.25147 -0.51065,2.38918 -1.33615,3.21468 -0.8255,0.8255 -1.96321,1.33615 -3.21469,1.33615 h -7.8687 l -6.91092,5.93989 c -0.32015,0.27517 -0.80433,0.23813 -1.0795,-0.0847 -0.13494,-0.15875 -0.19579,-0.35454 -0.18256,-0.54768 l 0.36777,-5.31019 h -0.0609 c -1.25148,0 -2.38918,-0.51065 -3.21468,-1.33615 -0.8255,-0.82285 -1.33615,-1.96056 -1.33615,-3.21203 V 4.55086 c 0,-1.25148 0.51065,-2.38919 1.33615,-3.21469 0.82285,-0.8255 1.96056,-1.33614 3.21468,-1.33614 z m 2.24367,11.557 c -0.42333,0 -0.76729,-0.34396 -0.76729,-0.7673 0,-0.42333 0.34396,-0.76729 0.76729,-0.76729 h 8.0301 c 0.42334,0 0.7673,0.34396 0.7673,0.76729 0,0.42334 -0.34396,0.7673 -0.7673,0.7673 z m 0,-3.79942 c -0.42333,0 -0.76729,-0.34396 -0.76729,-0.76729 0,-0.42334 0.34396,-0.76729 0.76729,-0.76729 h 11.38237 c 0.42334,0 0.7673,0.34395 0.7673,0.76729 0,0.42333 -0.34396,0.76729 -0.7673,0.76729 z m 13.48846,-6.223 h -15.73213 c -0.82814,0 -1.58221,0.33867 -2.12989,0.88635 -0.54769,0.54769 -0.88636,1.29911 -0.88636,2.1299 v 10.14942 c 0,0.82814 0.33867,1.5822 0.88636,2.12989 0.54768,0.54769 1.30175,0.88636 2.12989,0.88636 h 0.88371 v 0.003 l 0.0503,0.003 c 0.42069,0.0291 0.74084,0.39422 0.71173,0.81491 l -0.29898,4.30222 5.69913,-4.90008 c 0.13758,-0.13759 0.32808,-0.22225 0.53975,-0.22225 h 8.14652 c 0.82814,0 1.58221,-0.33867 2.12989,-0.88636 0.54769,-0.54769 0.88636,-1.30175 0.88636,-2.12989 V 4.55086 c 0,-0.82815 -0.33867,-1.58221 -0.88636,-2.1299 -0.54504,-0.54768 -1.2991,-0.88635 -2.12989,-0.88635 z"/>
</svg>
