<svg width="96" height="96" viewBox="0 0 96 96" xmlns="http://www.w3.org/2000/svg">
  <rect width="96" height="96" rx="22" fill="#E3F4F2"/>
  <circle cx="48" cy="34" r="18" fill="#E1B48E"/>
  <path d="M22 91c4-18 15-27 26-27s22 9 26 27" fill="#0F9D94"/>
  <path d="M29 23c4-8 11-13 20-13 9 0 16 5 19 13-6-2-12-2-20-2-7 0-13 1-19 2z" fill="#1E3B45"/>
  <circle cx="41" cy="35" r="2.5" fill="#25353C"/>
  <circle cx="55" cy="35" r="2.5" fill="#25353C"/>
  <path d="M41 45c4 3 10 3 14 0" stroke="#25353C" stroke-width="3" stroke-linecap="round"/>
</svg>
